<svg width="41" height="41" viewBox="0 0 41 41" fill="none" xmlns="http://www.w3.org/2000/svg">
<rect x="0.937744" y="0.129028" width="40" height="39.92" rx="19.96" fill="white"/>
<path d="M20.9377 10.129C15.4377 10.129 10.9377 14.619 10.9377 20.149C10.9377 25.149 14.5977 29.299 19.3777 30.049V23.049H16.8377V20.149H19.3777V17.939C19.3777 15.429 20.8677 14.049 23.1577 14.049C24.2477 14.049 25.3877 14.239 25.3877 14.239V16.709H24.1277C22.8877 16.709 22.4977 17.479 22.4977 18.269V20.149H25.2777L24.8277 23.049H22.4977V30.049C24.8542 29.6769 27 28.4745 28.5477 26.6591C30.0954 24.8436 30.9431 22.5347 30.9377 20.149C30.9377 14.619 26.4377 10.129 20.9377 10.129Z" fill="#F47521"/>
</svg>
