<svg width="41" height="41" viewBox="0 0 41 41" fill="none" xmlns="http://www.w3.org/2000/svg">
<rect x="0.937744" y="0.0490112" width="40" height="40" rx="20" fill="white"/>
<path d="M20.9377 10.049C23.6547 10.049 23.9937 10.059 25.0597 10.109C26.1247 10.159 26.8497 10.326 27.4877 10.574C28.1477 10.828 28.7037 11.172 29.2597 11.727C29.7682 12.2269 30.1617 12.8316 30.4127 13.499C30.6597 14.136 30.8277 14.862 30.8777 15.927C30.9247 16.993 30.9377 17.332 30.9377 20.049C30.9377 22.766 30.9277 23.105 30.8777 24.171C30.8277 25.236 30.6597 25.961 30.4127 26.599C30.1624 27.2668 29.7689 27.8716 29.2597 28.371C28.7597 28.8793 28.1551 29.2728 27.4877 29.524C26.8507 29.771 26.1247 29.939 25.0597 29.989C23.9937 30.036 23.6547 30.049 20.9377 30.049C18.2207 30.049 17.8817 30.039 16.8157 29.989C15.7507 29.939 15.0257 29.771 14.3877 29.524C13.7201 29.2735 13.1153 28.88 12.6157 28.371C12.1072 27.8712 11.7137 27.2665 11.4627 26.599C11.2147 25.962 11.0477 25.236 10.9977 24.171C10.9507 23.105 10.9377 22.766 10.9377 20.049C10.9377 17.332 10.9477 16.993 10.9977 15.927C11.0477 14.861 11.2147 14.137 11.4627 13.499C11.713 12.8312 12.1065 12.2263 12.6157 11.727C13.1154 11.2182 13.7202 10.8247 14.3877 10.574C15.0257 10.326 15.7497 10.159 16.8157 10.109C17.8817 10.062 18.2207 10.049 20.9377 10.049ZM20.9377 15.049C19.6117 15.049 18.3399 15.5758 17.4022 16.5135C16.4645 17.4512 15.9377 18.7229 15.9377 20.049C15.9377 21.3751 16.4645 22.6469 17.4022 23.5845C18.3399 24.5222 19.6117 25.049 20.9377 25.049C22.2638 25.049 23.5356 24.5222 24.4733 23.5845C25.411 22.6469 25.9377 21.3751 25.9377 20.049C25.9377 18.7229 25.411 17.4512 24.4733 16.5135C23.5356 15.5758 22.2638 15.049 20.9377 15.049ZM27.4377 14.799C27.4377 14.4675 27.306 14.1495 27.0716 13.9151C26.8372 13.6807 26.5193 13.549 26.1877 13.549C25.8562 13.549 25.5383 13.6807 25.3039 13.9151C25.0694 14.1495 24.9377 14.4675 24.9377 14.799C24.9377 15.1305 25.0694 15.4485 25.3039 15.6829C25.5383 15.9173 25.8562 16.049 26.1877 16.049C26.5193 16.049 26.8372 15.9173 27.0716 15.6829C27.306 15.4485 27.4377 15.1305 27.4377 14.799ZM20.9377 17.049C21.7334 17.049 22.4965 17.3651 23.0591 17.9277C23.6217 18.4903 23.9377 19.2534 23.9377 20.049C23.9377 20.8447 23.6217 21.6077 23.0591 22.1703C22.4965 22.7329 21.7334 23.049 20.9377 23.049C20.1421 23.049 19.379 22.7329 18.8164 22.1703C18.2538 21.6077 17.9377 20.8447 17.9377 20.049C17.9377 19.2534 18.2538 18.4903 18.8164 17.9277C19.379 17.3651 20.1421 17.049 20.9377 17.049Z" fill="#F47521"/>
</svg>
