<svg width="39" height="39" viewBox="0 0 39 39" fill="none" xmlns="http://www.w3.org/2000/svg">
<rect x="0.937744" y="0.0490112" width="38" height="38" rx="19" fill="white"/>
<path d="M26.9377 10.049C27.4682 10.049 27.9769 10.2597 28.352 10.6348C28.727 11.0099 28.9377 11.5186 28.9377 12.049V26.049C28.9377 26.5794 28.727 27.0882 28.352 27.4632C27.9769 27.8383 27.4682 28.049 26.9377 28.049H12.9377C12.4073 28.049 11.8986 27.8383 11.5235 27.4632C11.1485 27.0882 10.9377 26.5794 10.9377 26.049V12.049C10.9377 11.5186 11.1485 11.0099 11.5235 10.6348C11.8986 10.2597 12.4073 10.049 12.9377 10.049H26.9377ZM26.4377 25.549V20.249C26.4377 19.3844 26.0943 18.5552 25.4829 17.9438C24.8715 17.3325 24.0423 16.989 23.1777 16.989C22.3277 16.989 21.3377 17.509 20.8577 18.289V17.179H18.0677V25.549H20.8577V20.619C20.8577 19.849 21.4777 19.219 22.2477 19.219C22.619 19.219 22.9751 19.3665 23.2377 19.6291C23.5002 19.8916 23.6477 20.2477 23.6477 20.619V25.549H26.4377ZM14.8177 15.609C15.2633 15.609 15.6906 15.432 16.0057 15.117C16.3207 14.8019 16.4977 14.3746 16.4977 13.929C16.4977 12.999 15.7477 12.239 14.8177 12.239C14.3695 12.239 13.9397 12.4171 13.6227 12.734C13.3058 13.0509 13.1277 13.4808 13.1277 13.929C13.1277 14.859 13.8877 15.609 14.8177 15.609ZM16.2077 25.549V17.179H13.4377V25.549H16.2077Z" fill="#F47521"/>
</svg>
