<svg width="44" height="44" viewBox="0 0 44 44" fill="none" xmlns="http://www.w3.org/2000/svg">
<path d="M22 21.0834C20.7844 21.0834 19.6186 20.6005 18.7591 19.741C17.8995 18.8814 17.4166 17.7157 17.4166 16.5001C17.4166 15.2845 17.8995 14.1187 18.7591 13.2592C19.6186 12.3996 20.7844 11.9167 22 11.9167C23.2155 11.9167 24.3813 12.3996 25.2409 13.2592C26.1004 14.1187 26.5833 15.2845 26.5833 16.5001C26.5833 17.102 26.4647 17.698 26.2344 18.254C26.0041 18.8101 25.6665 19.3154 25.2409 19.741C24.8153 20.1666 24.31 20.5042 23.7539 20.7345C23.1979 20.9649 22.6019 21.0834 22 21.0834ZM22 3.66675C18.5963 3.66675 15.3321 5.01883 12.9254 7.42554C10.5187 9.83226 9.16663 13.0965 9.16663 16.5001C9.16663 26.1251 22 40.3334 22 40.3334C22 40.3334 34.8333 26.1251 34.8333 16.5001C34.8333 13.0965 33.4812 9.83226 31.0745 7.42554C28.6678 5.01883 25.4036 3.66675 22 3.66675Z" fill="#F47521"/>
</svg>
