<svg width="41" height="41" viewBox="0 0 41 41" fill="none" xmlns="http://www.w3.org/2000/svg">
<rect x="0.937744" y="0.0490112" width="40" height="40" rx="20" fill="white"/>
<path d="M10.9418 30.049L12.2938 25.081C11.4029 23.5539 10.9349 21.817 10.9378 20.049C10.9378 14.526 15.4148 10.049 20.9378 10.049C26.4608 10.049 30.9378 14.526 30.9378 20.049C30.9378 25.572 26.4608 30.049 20.9378 30.049C19.1705 30.0519 17.4344 29.5842 15.9078 28.694L10.9418 30.049ZM17.3288 15.357C17.1996 15.365 17.0734 15.399 16.9578 15.457C16.8493 15.5184 16.7503 15.5952 16.6638 15.685C16.5438 15.798 16.4758 15.896 16.4028 15.991C16.0332 16.472 15.8344 17.0624 15.8378 17.669C15.8398 18.159 15.9678 18.636 16.1678 19.082C16.5768 19.984 17.2498 20.939 18.1388 21.824C18.3528 22.037 18.5618 22.251 18.7868 22.45C19.8901 23.4215 21.205 24.1221 22.6268 24.496L23.1958 24.583C23.3808 24.593 23.5658 24.579 23.7518 24.57C24.043 24.555 24.3274 24.4761 24.5848 24.339C24.7157 24.2716 24.8435 24.1981 24.9678 24.119C24.9678 24.119 25.0108 24.091 25.0928 24.029C25.2278 23.929 25.3108 23.858 25.4228 23.741C25.5058 23.655 25.5778 23.554 25.6328 23.439C25.7108 23.276 25.7888 22.965 25.8208 22.706C25.8448 22.508 25.8378 22.4 25.8348 22.333C25.8308 22.226 25.7418 22.115 25.6448 22.068L25.0628 21.807C25.0628 21.807 24.1928 21.428 23.6618 21.186C23.6058 21.1616 23.5458 21.1477 23.4848 21.145C23.4163 21.138 23.3472 21.1457 23.282 21.1676C23.2168 21.1895 23.1571 21.2251 23.1068 21.272V21.27C23.1018 21.27 23.0348 21.327 22.3118 22.203C22.2703 22.2588 22.2131 22.3009 22.1476 22.3241C22.082 22.3472 22.0111 22.3503 21.9438 22.333C21.8786 22.3156 21.8148 22.2935 21.7528 22.267C21.6288 22.215 21.5858 22.195 21.5008 22.158L21.4958 22.156C20.9237 21.9062 20.394 21.5689 19.9258 21.156C19.7998 21.046 19.6828 20.926 19.5628 20.81C19.1693 20.4332 18.8265 20.007 18.5428 19.542L18.4838 19.447C18.4414 19.3832 18.4071 19.3143 18.3818 19.242C18.3438 19.095 18.4428 18.977 18.4428 18.977C18.4428 18.977 18.6858 18.711 18.7988 18.567C18.8928 18.4473 18.9806 18.3228 19.0618 18.194C19.1798 18.004 19.2168 17.809 19.1548 17.658C18.8748 16.974 18.5848 16.293 18.2868 15.617C18.2278 15.483 18.0528 15.387 17.8938 15.368C17.8398 15.362 17.7858 15.356 17.7318 15.352C17.5975 15.3453 17.4629 15.3477 17.3288 15.357Z" fill="#F47521"/>
</svg>
