<svg width="44" height="44" viewBox="0 0 44 44" fill="none" xmlns="http://www.w3.org/2000/svg">
<path d="M14.6667 25.6667C14.1472 25.6667 13.7115 25.4907 13.3595 25.1387C13.0075 24.7867 12.8321 24.3516 12.8333 23.8334C12.8333 23.314 13.0093 22.8782 13.3613 22.5262C13.7133 22.1742 14.1484 21.9989 14.6667 22.0001C15.1861 22.0001 15.6218 22.1761 15.9738 22.5281C16.3258 22.8801 16.5012 23.3152 16.5 23.8334C16.5 24.3529 16.324 24.7886 15.972 25.1406C15.62 25.4926 15.1849 25.668 14.6667 25.6667ZM22 25.6667C21.4806 25.6667 21.0448 25.4907 20.6928 25.1387C20.3408 24.7867 20.1654 24.3516 20.1667 23.8334C20.1667 23.314 20.3427 22.8782 20.6947 22.5262C21.0467 22.1742 21.4818 21.9989 22 22.0001C22.5194 22.0001 22.9552 22.1761 23.3072 22.5281C23.6592 22.8801 23.8346 23.3152 23.8333 23.8334C23.8333 24.3529 23.6573 24.7886 23.3053 25.1406C22.9533 25.4926 22.5182 25.668 22 25.6667ZM29.3333 25.6667C28.8139 25.6667 28.3782 25.4907 28.0262 25.1387C27.6742 24.7867 27.4988 24.3516 27.5 23.8334C27.5 23.314 27.676 22.8782 28.028 22.5262C28.38 22.1742 28.8151 21.9989 29.3333 22.0001C29.8528 22.0001 30.2885 22.1761 30.6405 22.5281C30.9925 22.8801 31.1679 23.3152 31.1667 23.8334C31.1667 24.3529 30.9907 24.7886 30.6387 25.1406C30.2867 25.4926 29.8516 25.668 29.3333 25.6667ZM9.16667 40.3334C8.15834 40.3334 7.29484 39.9741 6.57617 39.2554C5.8575 38.5368 5.49878 37.6739 5.5 36.6667V11.0001C5.5 9.99175 5.85934 9.12825 6.578 8.40958C7.29667 7.69091 8.15956 7.33219 9.16667 7.33341H11V3.66675H14.6667V7.33341H29.3333V3.66675H33V7.33341H34.8333C35.8417 7.33341 36.7052 7.69275 37.4238 8.41141C38.1425 9.13008 38.5012 9.99297 38.5 11.0001V36.6667C38.5 37.6751 38.1407 38.5386 37.422 39.2572C36.7033 39.9759 35.8404 40.3346 34.8333 40.3334H9.16667ZM9.16667 36.6667H34.8333V18.3334H9.16667V36.6667Z" fill="#F47521"/>
</svg>
